PathFileType	4	(X/Y/Z)	8_coords_data.trc
DataRate	CameraRate	NumFrames	NumMarkers	Units	OrigDataRate	OrigDataStartFrame	OrigNumFrames
30.0	30.0	7	21	m	30.0	1	55
Frame#	Time	THUMB_TIP	THUMB_IP	THUMB_MCP	THUMB_CMC	INDEX_TIP	INDEX_DIP	INDEX_PIP	INDEX_MCP	MIDDLE_TIP	MIDDLE_DIP	MIDDLE_PIP	MIDDLE_MCP	RING_TIP	RING_DIP	RING_PIP	RING_MCP	PINKY_TIP	PINKY_DIP	PINKY_PIP	PINKY_MCP	WRIST
X1	Y1	Z1	X2	Y2	Z2	X3	Y3	Z3	X4	Y4	Z4	X5	Y5	Z5	X6	Y6	Z6	X7	Y7	Z7	X8	Y8	Z8	X9	Y9	Z9	X10	Y10	Z10	X11	Y11	Z11	X12	Y12	Z12	X13	Y13	Z13	X14	Y14	Z14	X15	Y15	Z15	X16	Y16	Z16	X17	Y17	Z17	X18	Y18	Z18	X19	Y19	Z19	X20	Y20	Z20	X21	Y21	Z21
0	0.0	0.026677499771118163	-0.08394390106201172	1.05143994140625	0.010034999847412109	-0.06557469940185547	1.0571400146484375	-0.006962120056152344	-0.04147650146484375	1.060280029296875	-0.02151029968261719	-0.01555399990081787	1.0660400390625	0.013320799827575683	-0.06674970245361328	0.9493889770507813	0.000791161000728607	-0.05892630004882812	0.963677001953125	-0.008771260261535645	-0.04866239929199219	0.9798679809570312	-0.015569700241088866	-0.025032699584960936	1.0096099853515625	0.007254809856414795	-0.005222819805145264	0.9225269775390625	-0.006171460151672363	-0.0064893798828125	0.9440499877929688	-0.020228200912475586	-0.007048669815063476	0.9658410034179687	-0.023595199584960938	-0.006860660076141357	1.0034299926757813	0.01696999931335449	0.029706899642944335	0.9377440185546875	0.003140820026397705	0.02517970085144043	0.9559769897460938	-0.011811300277709961	0.020833099365234375	0.9759199829101562	-0.019247600555419922	0.011858599662780762	1.0096199951171876	0.032306400299072266	0.061107799530029296	0.99356298828125	0.017643800735473635	0.050570201873779294	1.002239990234375	0.004803130149841309	0.04181209945678711	1.00872998046875	-0.01333139991760254	0.026969999313354493	1.0188099975585938	-0.04934220123291016	0.013002900123596192	1.0768499755859375
1	0.03333333333333333	0.02626350021362305	-0.08391390228271485	1.0505	0.009930419921875	-0.06379570007324219	1.0563599853515624	-0.007263879776000976	-0.04183530044555664	1.0598499755859374	-0.02046579933166504	-0.013057499885559083	1.064800048828125	0.013646599769592285	-0.06690989685058593	0.9489439697265625	0.0013173600435256948	-0.05834690093994141	0.964	-0.00949304962158203	-0.04857770156860351	0.9803909912109375	-0.01661669921875	-0.026631599426269532	1.0103900146484375	0.008488659858703613	-0.00495580005645752	0.922989990234375	-0.005179319858551025	-0.006312280178070068	0.9428720092773437	-0.019476900100708006	-0.007112209796905518	0.9668499755859375	-0.023216299057006836	-0.0065502400398254395	1.0051099853515626	0.016915899276733398	0.029632400512695313	0.9385	0.0029174599647521973	0.02559040069580078	0.9569520263671875	-0.01203969955444336	0.02103380012512207	0.9775759887695312	-0.019231300354003906	0.012714900016784669	1.0085499877929687	0.03260559844970703	0.060595901489257815	0.9940859985351562	0.01774519920349121	0.050734798431396486	1.0021900024414063	0.004114590167999268	0.0419999008178711	1.0086500244140626	-0.01364490032196045	0.027490800857543945	1.0186900024414063	-0.049031299591064455	0.01206190013885498	1.0748499755859375
2	0.06666666666666667	0.026101299285888672	-0.08392269897460937	1.0502900390625	0.009840740203857421	-0.06379399871826172	1.0561400146484374	-0.007328569889068603	-0.04178670120239258	1.0596199951171874	-0.0204143009185791	-0.012890700340270997	1.0645999755859374	0.013172100067138672	-0.06686070251464844	0.9485609741210937	0.0008367230296134941	-0.058283199310302736	0.9636290283203125	-0.009873339653015137	-0.04851319885253906	0.980125	-0.016639999389648438	-0.026554500579833985	1.0101500244140624	0.00864204978942871	-0.004990439891815185	0.9228369750976563	-0.005069729804992676	-0.0062881197929382324	0.9427050170898438	-0.019425800323486328	-0.007050059795379639	0.966593994140625	-0.023280000686645506	-0.006449150085449219	1.005	0.017444900512695313	0.02933009910583496	0.938322021484375	0.003324399948120117	0.025445299148559572	0.9566900024414062	-0.011766900062561035	0.021010700225830077	0.9773480224609375	-0.019067399978637694	0.012770500183105469	1.0083400268554688	0.03312070083618164	0.060305999755859374	0.9939340209960937	0.01819420051574707	0.05059389877319336	1.00202001953125	0.004481750011444092	0.04195280075073242	1.0084600219726563	-0.013389200210571288	0.027513599395751952	1.0185	-0.04881060028076172	0.012224599838256836	1.0746500244140624
3	0.1	0.02584239959716797	-0.08400749969482423	1.05	0.009574250221252441	-0.06393410110473632	1.056030029296875	-0.00741487979888916	-0.04184030151367187	1.05947998046875	-0.020433700561523438	-0.012941699981689453	1.0643499755859376	0.012752400398254395	-0.06703489685058593	0.9482169799804687	0.00051476901769638	-0.0583848991394043	0.9633330078125	-0.010075599670410156	-0.04854769897460937	0.9798989868164063	-0.01660059928894043	-0.026544200897216798	1.0100499877929687	0.008975319862365723	-0.005035289764404297	0.922677978515625	-0.004775129795074463	-0.006290890216827392	0.942489013671875	-0.019162799835205076	-0.007020979881286621	0.9664039916992188	-0.02311599922180176	-0.006468249797821045	1.00475	0.018054800033569338	0.029092100143432616	0.938301025390625	0.003879349946975708	0.025315799713134766	0.9565819702148437	-0.011325200080871583	0.02094890022277832	0.97718701171875	-0.018757699966430664	0.012739700317382812	1.0080900268554687	0.03369789886474609	0.05999729919433594	0.9940050048828125	0.018641300201416015	0.05035810089111328	1.0020599975585938	0.004891990184783935	0.041781299591064455	1.0084400024414062	-0.013112299919128418	0.027473899841308595	1.0183200073242187	-0.048847198486328125	0.012328100204467774	1.0743299560546875
4	0.13333333333333333	0.025706199645996092	-0.08420359802246094	1.04997998046875	0.009544890403747558	-0.06409120178222656	1.0558900146484376	-0.007294559955596924	-0.04193170166015625	1.0592900390625	-0.02024850082397461	-0.013030799865722656	1.0640899658203125	0.01265590000152588	-0.06712120056152343	0.9478590087890625	0.0005863100290298461	-0.05843379974365234	0.9630479736328125	-0.009926939964294433	-0.0486072998046875	0.979635009765625	-0.016324100494384767	-0.026660699844360352	1.0097899780273438	0.0088120698928833	-0.005244110107421875	0.9221810302734375	-0.004687419891357422	-0.006483500003814697	0.9422119750976562	-0.018931699752807618	-0.007188779830932617	0.966218994140625	-0.022893699645996093	-0.006548299789428711	1.0046599731445311	0.017989099502563475	0.028943000793457033	0.9378900146484375	0.0038780899047851564	0.025142799377441405	0.9562470092773437	-0.011241999626159668	0.020792499542236328	0.9768809814453125	-0.018578500747680665	0.012700900077819825	1.0079099731445313	0.03368550109863281	0.06008530044555664	0.9935349731445312	0.018691299438476562	0.05036640167236328	1.0016699829101563	0.00500409984588623	0.04177949905395508	1.0080800170898438	-0.012910200119018554	0.027480499267578125	1.0180499877929687	-0.04863690185546875	0.01228849983215332	1.0740699462890626
5	0.16666666666666666	0.02613789939880371	-0.08431700134277344	1.05056005859375	0.009955789566040039	-0.06403600311279296	1.05622998046875	-0.006944699764251709	-0.041866901397705075	1.059489990234375	-0.019977399826049805	-0.012931900024414062	1.0641400146484374	0.013691900253295898	-0.06734539794921875	0.948239990234375	0.001431589961051941	-0.05867900085449219	0.9633489990234375	-0.00925366973876953	-0.048845100402832034	0.9798189697265625	-0.015907099723815918	-0.0268302001953125	1.0098699951171874	0.010276599884033203	-0.00589585018157959	0.9225880126953125	-0.003536439895629883	-0.007041999816894531	0.9424110107421875	-0.0181289005279541	-0.00765516996383667	0.9662319946289063	-0.022420299530029296	-0.006748760223388672	1.0045800170898438	0.01907900047302246	0.028393800735473634	0.9381279907226563	0.00472130012512207	0.024649200439453126	0.95622802734375	-0.010595299720764161	0.020402000427246093	0.976698974609375	-0.018294000625610353	0.012495599746704101	1.0077899780273438	0.034033798217773435	0.05997629928588867	0.9935490112304688	0.01898480033874512	0.05025680160522461	1.0016199951171876	0.005246679782867431	0.04167050170898438	1.007969970703125	-0.01271109962463379	0.027327600479125976	1.0178499755859376	-0.04849909973144531	0.01232129955291748	1.0739100341796874
6	0.2	0.026549400329589842	-0.084533203125	1.0515799560546875	0.010550800323486329	-0.0640342025756836	1.05672998046875	-0.006485529899597168	-0.04181489944458008	1.059800048828125	-0.019594900131225584	-0.012862199783325196	1.06422998046875	0.014151700019836426	-0.06779450225830078	0.9485989990234375	0.0018654600381851191	-0.05909920120239258	0.9636220092773438	-0.0088262300491333	-0.04924269866943359	0.98006298828125	-0.015375200271606446	-0.02712350082397461	1.010030029296875	0.010708399772644043	-0.006699790000915527	0.9226519775390625	-0.003200160026550293	-0.007770440101623535	0.9424580078125	-0.01779949951171875	-0.008280949592590332	0.966208984375	-0.02201289939880371	-0.007122879981994629	1.0045900268554688	0.01932740020751953	0.02778070068359375	0.937989013671875	0.004968850135803222	0.02409630012512207	0.956125	-0.010287699699401855	0.019893999099731444	0.976489013671875	-0.018057100296020506	0.012193400382995606	1.00772998046875	0.03419580078125	0.05972729873657227	0.9932570190429687	0.019221099853515625	0.05000389862060547	1.0013599853515625	0.005444069862365722	0.04141370010375976	1.007760009765625	-0.01248490047454834	0.027100500106811524	1.01772998046875	-0.04821969985961914	0.01220359992980957	1.0738599853515625
